# xmcd
#
# Track frame offsets: 
#        150
#        9322
#        14855
#        21420
#        37877
#        60487
#        71645
#        83862
#        125870
#        133687
#        148920
#        163910
#        171082
#        177167
#        187347
#        196225
#        204760
#        213080
#        219907
#        233370
#        245932
#        254237
#
# Disc length: 3515 seconds
#
# Revision: 0
# Processed by: cddbd v1.5.2PL0 Copyright (c) Steve Scherf et al.
# Submitted via: ExactAudioCopy v0.99pb4
#
DISCID=4c0db916
DTITLE=Barry Wallenstein - Tony's Blues
DYEAR=2000
DGENRE=Blues
TTITLE0=Little Bestiary
TTITLE1=New York to London
TTITLE2=Fancy Takes Me Home
TTITLE3=Hotel Splendide
TTITLE4=Blues
TTITLE5=Another Salesman
TTITLE6=In The Boardroom
TTITLE7=Tony's Sequence
TTITLE8=Postmodernism
TTITLE9=Blue Smoke
TTITLE10=Dr. Trope
TTITLE11=Ghosts
TTITLE12=The Invitation
TTITLE13=Under The Branches
TTITLE14=Waking To the Dark
TTITLE15=Serving The State
TTITLE16=Devil Design
TTITLE17=Sara Jones
TTITLE18=Leisure Time Out
TTITLE19=Death
TTITLE20=Failure
TTITLE21=Rabbits
EXTD=
EXTT0=
EXTT1=
EXTT2=
EXTT3=
EXTT4=
EXTT5=
EXTT6=
EXTT7=
EXTT8=
EXTT9=
EXTT10=
EXTT11=
EXTT12=
EXTT13=
EXTT14=
EXTT15=
EXTT16=
EXTT17=
EXTT18=
EXTT19=
EXTT20=
EXTT21=
PLAYORDER=
